# xmcd CD database file
#
# Track frame offsets:
#	150
#	20840
#	41025
#	60495
#	80088
#	101095
#	118155
#	139453
#	159368
#	181108
#	202138
#	219550
#	238838
#	268370
#	332550
#
# Disc length: 4442 seconds
#
# Revision: 1
# Processed by: cddbd v1.5.1PL2 Copyright (c) Steve Scherf et al.
# Submitted via: CDex 1.70beta2
#
DISCID=ea11580f
DTITLE=????????? - PORNO GRAFFITTI BEST RED'S
DYEAR=1900
DGENRE=
TTITLE0=??????????
TTITLE1=Century Lovers
TTITLE2=???????
TTITLE3=?????
TTITLE4=????
TTITLE5=???
TTITLE6=????????????????
TTITLE7=Go Steady Go!
TTITLE8=?
TTITLE9=??????
TTITLE10=????
TTITLE11=Mugen
TTITLE12=????? (????)
TTITLE13=NO MUSIC(FUCK CCCD)
TTITLE14=NO MUSIC(FUCK CCCD)
EXTD=
EXTT0=
EXTT1=
EXTT2=
EXTT3=
EXTT4=
EXTT5=
EXTT6=
EXTT7=
EXTT8=
EXTT9=
EXTT10=
EXTT11=
EXTT12=
EXTT13=
EXTT14=
PLAYORDER=
